<svg width="137" height="228" viewBox="0 0 137 228" fill="none" xmlns="http://www.w3.org/2000/svg">
<path d="M19.2358 4.36963C19.2358 5.12223 18.9978 5.75586 18.5219 6.27051C18.0515 6.78516 17.4179 7.11442 16.621 7.2583V7.30811C17.595 7.42985 18.3365 7.73975 18.8457 8.23779C19.3548 8.73584 19.6093 9.40544 19.6093 10.2466C19.6093 11.381 19.222 12.2609 18.4472 12.8862C17.678 13.506 16.5685 13.8159 15.1186 13.8159C13.8846 13.8159 12.8082 13.5863 11.8896 13.127V12.3052C12.3544 12.5487 12.8746 12.7396 13.4501 12.8779C14.0312 13.0163 14.5763 13.0854 15.0854 13.0854C16.3084 13.0854 17.227 12.8392 17.8413 12.3467C18.4555 11.8486 18.7626 11.1486 18.7626 10.2466C18.7626 9.44417 18.4472 8.82715 17.8164 8.39551C17.191 7.96387 16.2696 7.74805 15.0522 7.74805H13.7407V6.95117H15.0688C16.076 6.95117 16.8728 6.71322 17.4594 6.2373C18.0515 5.75586 18.3476 5.10563 18.3476 4.28662C18.3476 3.61149 18.1069 3.07194 17.6254 2.66797C17.1495 2.25846 16.5242 2.05371 15.7495 2.05371C15.1463 2.05371 14.5957 2.13949 14.0976 2.31104C13.5996 2.47705 13.0406 2.76481 12.4208 3.17432L12.0141 2.61816C12.4845 2.22526 13.0517 1.91536 13.7158 1.68848C14.3798 1.45605 15.0522 1.33984 15.7329 1.33984C16.8507 1.33984 17.714 1.60547 18.3227 2.13672C18.9314 2.66243 19.2358 3.40674 19.2358 4.36963ZM31.2786 7.54883C31.2786 9.67936 30.9521 11.2565 30.2991 12.2803C29.6516 13.304 28.6694 13.8159 27.3523 13.8159C26.085 13.8159 25.1222 13.2902 24.4636 12.2388C23.8051 11.1818 23.4758 9.61849 23.4758 7.54883C23.4758 5.4349 23.794 3.86882 24.4304 2.85059C25.0723 1.83236 26.0463 1.32324 27.3523 1.32324C28.6306 1.32324 29.6046 1.85173 30.2742 2.90869C30.9438 3.96012 31.2786 5.50684 31.2786 7.54883ZM24.3723 7.54883C24.3723 9.43034 24.6186 10.8221 25.1111 11.7241C25.6036 12.6206 26.3507 13.0688 27.3523 13.0688C28.3982 13.0688 29.1591 12.604 29.635 11.6743C30.1165 10.7446 30.3572 9.36947 30.3572 7.54883C30.3572 5.75586 30.1165 4.39453 29.635 3.46484C29.1591 2.53516 28.3982 2.07031 27.3523 2.07031C26.3064 2.07031 25.5483 2.53516 25.0779 3.46484C24.6075 4.39453 24.3723 5.75586 24.3723 7.54883ZM42.6141 13.6499H41.7674V1.51416H48.4164V2.29443H42.6141V7.44092H48.0926V8.22949H42.6141V13.6499ZM55.3458 4.45264C55.7277 4.45264 56.1372 4.49137 56.5744 4.56885L56.4166 5.35742C56.0403 5.26335 55.6502 5.21631 55.2462 5.21631C54.477 5.21631 53.8462 5.54281 53.3537 6.1958C52.8611 6.8488 52.6149 7.67334 52.6149 8.66943V13.6499H51.7931V4.62695H52.4904L52.5734 6.25391H52.6315C53.0023 5.58984 53.3979 5.125 53.8185 4.85938C54.2391 4.58822 54.7482 4.45264 55.3458 4.45264ZM63.7612 13.8159C62.4497 13.8159 61.4259 13.4119 60.6899 12.604C59.9594 11.7961 59.5942 10.6644 59.5942 9.20898C59.5942 7.77018 59.9484 6.61914 60.6567 5.75586C61.365 4.88704 62.3196 4.45264 63.5205 4.45264C64.583 4.45264 65.4213 4.8234 66.0356 5.56494C66.6499 6.30648 66.957 7.31364 66.957 8.58643V9.25049H60.4575C60.4685 10.4901 60.7563 11.4364 61.3208 12.0894C61.8907 12.7424 62.7042 13.0688 63.7612 13.0688C64.2758 13.0688 64.7268 13.0329 65.1142 12.9609C65.5071 12.889 66.0024 12.734 66.6 12.4961V13.2432C66.0909 13.4645 65.6206 13.6139 65.1889 13.6914C64.7573 13.7744 64.2814 13.8159 63.7612 13.8159ZM63.5205 5.18311C62.6516 5.18311 61.9544 5.47087 61.4287 6.04639C60.9029 6.61637 60.5958 7.44092 60.5073 8.52002H66.0854C66.0854 7.47412 65.8585 6.65788 65.4047 6.07129C64.951 5.47917 64.3229 5.18311 63.5205 5.18311ZM74.7913 13.8159C73.4797 13.8159 72.456 13.4119 71.72 12.604C70.9895 11.7961 70.6243 10.6644 70.6243 9.20898C70.6243 7.77018 70.9784 6.61914 71.6868 5.75586C72.3951 4.88704 73.3497 4.45264 74.5505 4.45264C75.613 4.45264 76.4514 4.8234 77.0657 5.56494C77.6799 6.30648 77.9871 7.31364 77.9871 8.58643V9.25049H71.4875C71.4986 10.4901 71.7864 11.4364 72.3508 12.0894C72.9208 12.7424 73.7343 13.0688 74.7913 13.0688C75.3059 13.0688 75.7569 13.0329 76.1443 12.9609C76.5372 12.889 77.0325 12.734 77.6301 12.4961V13.2432C77.121 13.4645 76.6506 13.6139 76.219 13.6914C75.7874 13.7744 75.3114 13.8159 74.7913 13.8159ZM74.5505 5.18311C73.6817 5.18311 72.9845 5.47087 72.4587 6.04639C71.933 6.61637 71.6259 7.44092 71.5374 8.52002H77.1155C77.1155 7.47412 76.8886 6.65788 76.4348 6.07129C75.981 5.47917 75.3529 5.18311 74.5505 5.18311ZM91.6634 13.6499H90.8084V2.31104H86.8656V1.51416H95.6063V2.31104H91.6634V13.6499ZM102.461 4.45264C102.843 4.45264 103.252 4.49137 103.69 4.56885L103.532 5.35742C103.156 5.26335 102.765 5.21631 102.361 5.21631C101.592 5.21631 100.961 5.54281 100.469 6.1958C99.9764 6.8488 99.7301 7.67334 99.7301 8.66943V13.6499H98.9084V4.62695H99.6056L99.6886 6.25391H99.7467C100.118 5.58984 100.513 5.125 100.934 4.85938C101.354 4.58822 101.863 4.45264 102.461 4.45264ZM112.711 13.6499L112.503 12.2222H112.437C111.983 12.8032 111.516 13.2155 111.034 13.459C110.558 13.6969 109.994 13.8159 109.341 13.8159C108.455 13.8159 107.766 13.589 107.274 13.1353C106.781 12.6815 106.535 12.0534 106.535 11.251C106.535 10.3711 106.9 9.68766 107.631 9.20068C108.367 8.7137 109.429 8.45638 110.818 8.42871L112.537 8.37891V7.78125C112.537 6.9235 112.362 6.27604 112.014 5.83887C111.665 5.40169 111.103 5.18311 110.329 5.18311C109.493 5.18311 108.627 5.41553 107.73 5.88037L107.423 5.1665C108.414 4.70166 109.393 4.46924 110.362 4.46924C111.352 4.46924 112.091 4.72656 112.578 5.24121C113.071 5.75586 113.317 6.55827 113.317 7.64844V13.6499H112.711ZM109.391 13.0688C110.353 13.0688 111.112 12.7949 111.665 12.2471C112.224 11.6937 112.503 10.9272 112.503 9.94775V9.05957L110.926 9.12598C109.659 9.18685 108.754 9.38607 108.212 9.72363C107.675 10.0557 107.407 10.5758 107.407 11.2842C107.407 11.8486 107.578 12.2886 107.921 12.604C108.27 12.9139 108.76 13.0688 109.391 13.0688ZM118.769 13.6499H117.947V4.62695H118.769V13.6499ZM117.831 2.12012C117.831 1.58887 118.005 1.32324 118.354 1.32324C118.525 1.32324 118.658 1.39242 118.752 1.53076C118.852 1.66911 118.902 1.86556 118.902 2.12012C118.902 2.36914 118.852 2.56559 118.752 2.70947C118.658 2.85335 118.525 2.92529 118.354 2.92529C118.005 2.92529 117.831 2.6569 117.831 2.12012ZM124.32 13.6499H123.499V0.733887H124.32V13.6499ZM4.14663 76.3535C5.44155 76.3535 6.45978 76.6662 7.20132 77.2915C7.94839 77.9168 8.32192 78.7773 8.32192 79.873C8.32192 81.1182 7.93455 82.0866 7.15981 82.7783C6.38507 83.4701 5.31704 83.8159 3.95571 83.8159C3.35252 83.8159 2.77977 83.7578 2.23745 83.6416C1.69513 83.5199 1.24136 83.3483 0.876122 83.127V82.272C1.47378 82.5763 2.00503 82.7894 2.46987 82.9111C2.93472 83.0273 3.43 83.0854 3.95571 83.0854C5.01821 83.0854 5.87042 82.806 6.51235 82.2471C7.15428 81.6826 7.47524 80.9217 7.47524 79.9644C7.47524 79.0623 7.16258 78.354 6.53725 77.8394C5.91193 77.3247 5.06248 77.0674 3.98891 77.0674C3.26951 77.0674 2.51691 77.1753 1.7311 77.3911L1.23306 77.0674L1.7145 71.5142H7.55825V72.311H2.49477L2.12124 76.5942C2.98452 76.4338 3.65965 76.3535 4.14663 76.3535ZM19.782 83.6499H18.9353V71.5142H25.5842V72.2944H19.782V77.4409H25.2605V78.2295H19.782V83.6499ZM32.5137 74.4526C32.8956 74.4526 33.3051 74.4914 33.7422 74.5688L33.5845 75.3574C33.2082 75.2633 32.8181 75.2163 32.4141 75.2163C31.6449 75.2163 31.014 75.5428 30.5215 76.1958C30.029 76.8488 29.7828 77.6733 29.7828 78.6694V83.6499H28.961V74.627H29.6583L29.7413 76.2539H29.7994C30.1701 75.5898 30.5658 75.125 30.9864 74.8594C31.4069 74.5882 31.9161 74.4526 32.5137 74.4526ZM40.9291 83.8159C39.6175 83.8159 38.5938 83.4119 37.8578 82.604C37.1273 81.7961 36.7621 80.6644 36.7621 79.209C36.7621 77.7702 37.1162 76.6191 37.8246 75.7559C38.5329 74.887 39.4875 74.4526 40.6883 74.4526C41.7508 74.4526 42.5892 74.8234 43.2035 75.5649C43.8177 76.3065 44.1249 77.3136 44.1249 78.5864V79.2505H37.6253C37.6364 80.4901 37.9242 81.4364 38.4886 82.0894C39.0586 82.7424 39.8721 83.0688 40.9291 83.0688C41.4437 83.0688 41.8947 83.0329 42.2821 82.9609C42.675 82.889 43.1703 82.734 43.7679 82.4961V83.2432C43.2588 83.4645 42.7884 83.6139 42.3568 83.6914C41.9251 83.7744 41.4492 83.8159 40.9291 83.8159ZM40.6883 75.1831C39.8195 75.1831 39.1222 75.4709 38.5965 76.0464C38.0708 76.6164 37.7637 77.4409 37.6751 78.52H43.2533C43.2533 77.4741 43.0264 76.6579 42.5726 76.0713C42.1188 75.4792 41.4907 75.1831 40.6883 75.1831ZM51.9591 83.8159C50.6476 83.8159 49.6238 83.4119 48.8878 82.604C48.1574 81.7961 47.7921 80.6644 47.7921 79.209C47.7921 77.7702 48.1463 76.6191 48.8546 75.7559C49.563 74.887 50.5176 74.4526 51.7184 74.4526C52.7809 74.4526 53.6193 74.8234 54.2335 75.5649C54.8478 76.3065 55.1549 77.3136 55.1549 78.5864V79.2505H48.6554C48.6665 80.4901 48.9542 81.4364 49.5187 82.0894C50.0887 82.7424 50.9022 83.0688 51.9591 83.0688C52.4738 83.0688 52.9248 83.0329 53.3122 82.9609C53.7051 82.889 54.2003 82.734 54.798 82.4961V83.2432C54.2889 83.4645 53.8185 83.6139 53.3869 83.6914C52.9552 83.7744 52.4793 83.8159 51.9591 83.8159ZM51.7184 75.1831C50.8496 75.1831 50.1523 75.4709 49.6266 76.0464C49.1009 76.6164 48.7938 77.4409 48.7052 78.52H54.2833C54.2833 77.4741 54.0565 76.6579 53.6027 76.0713C53.1489 75.4792 52.5208 75.1831 51.7184 75.1831ZM72.9734 75.0005C72.9734 76.1737 72.575 77.0729 71.7781 77.6982C70.9812 78.3236 69.8523 78.6362 68.3914 78.6362H66.5154V83.6499H65.6687V71.5142H68.6404C71.5291 71.5142 72.9734 72.6763 72.9734 75.0005ZM66.5154 77.9058H68.1838C69.5507 77.9058 70.5385 77.6816 71.1472 77.2334C71.7559 76.7796 72.0603 76.0464 72.0603 75.0337C72.0603 74.0985 71.7725 73.4067 71.197 72.9585C70.6215 72.5047 69.7306 72.2778 68.5242 72.2778H66.5154V77.9058ZM80.6582 74.4526C81.0401 74.4526 81.4496 74.4914 81.8868 74.5688L81.729 75.3574C81.3527 75.2633 80.9626 75.2163 80.5586 75.2163C79.7894 75.2163 79.1586 75.5428 78.6661 76.1958C78.1735 76.8488 77.9273 77.6733 77.9273 78.6694V83.6499H77.1055V74.627H77.8028L77.8858 76.2539H77.9439C78.3147 75.5898 78.7103 75.125 79.1309 74.8594C79.5515 74.5882 80.0606 74.4526 80.6582 74.4526ZM92.8919 79.126C92.8919 80.598 92.535 81.749 91.8211 82.5791C91.1073 83.4036 90.1223 83.8159 88.8661 83.8159C88.0747 83.8159 87.3775 83.625 86.7743 83.2432C86.1711 82.8613 85.709 82.3135 85.388 81.5996C85.0671 80.8857 84.9066 80.0612 84.9066 79.126C84.9066 77.654 85.2635 76.5085 85.9774 75.6895C86.6913 74.8649 87.6708 74.4526 88.9159 74.4526C90.1555 74.4526 91.1266 74.8704 91.8294 75.7061C92.5378 76.5361 92.8919 77.6761 92.8919 79.126ZM85.7699 79.126C85.7699 80.3656 86.041 81.334 86.5834 82.0312C87.1312 82.723 87.9032 83.0688 88.8993 83.0688C89.8954 83.0688 90.6646 82.723 91.2069 82.0312C91.7547 81.334 92.0287 80.3656 92.0287 79.126C92.0287 77.8809 91.752 76.9152 91.1986 76.229C90.6507 75.5428 89.8788 75.1997 88.8827 75.1997C87.8866 75.1997 87.1174 75.5428 86.5751 76.229C86.0383 76.9097 85.7699 77.8753 85.7699 79.126ZM95.8869 87.7339C95.4442 87.7339 95.0706 87.6647 94.7663 87.5264V86.8125C95.1481 86.9232 95.505 86.9785 95.8371 86.9785C96.6727 86.9785 97.0905 86.4915 97.0905 85.5176V74.627H97.9123V85.4014C97.9123 86.1484 97.7352 86.724 97.381 87.1279C97.0324 87.5319 96.5343 87.7339 95.8869 87.7339ZM96.9743 72.1201C96.9743 71.5889 97.1486 71.3232 97.4972 71.3232C97.6688 71.3232 97.8016 71.3924 97.8957 71.5308C97.9953 71.6691 98.0451 71.8656 98.0451 72.1201C98.0451 72.3691 97.9953 72.5656 97.8957 72.7095C97.8016 72.8534 97.6688 72.9253 97.4972 72.9253C97.1486 72.9253 96.9743 72.6569 96.9743 72.1201ZM106.286 83.8159C104.975 83.8159 103.951 83.4119 103.215 82.604C102.484 81.7961 102.119 80.6644 102.119 79.209C102.119 77.7702 102.473 76.6191 103.182 75.7559C103.89 74.887 104.845 74.4526 106.045 74.4526C107.108 74.4526 107.946 74.8234 108.56 75.5649C109.175 76.3065 109.482 77.3136 109.482 78.5864V79.2505H102.982C102.993 80.4901 103.281 81.4364 103.846 82.0894C104.416 82.7424 105.229 83.0688 106.286 83.0688C106.801 83.0688 107.252 83.0329 107.639 82.9609C108.032 82.889 108.527 82.734 109.125 82.4961V83.2432C108.616 83.4645 108.145 83.6139 107.714 83.6914C107.282 83.7744 106.806 83.8159 106.286 83.8159ZM106.045 75.1831C105.177 75.1831 104.479 75.4709 103.954 76.0464C103.428 76.6164 103.121 77.4409 103.032 78.52H108.61C108.61 77.4741 108.383 76.6579 107.93 76.0713C107.476 75.4792 106.848 75.1831 106.045 75.1831ZM117.275 83.8159C115.985 83.8159 114.975 83.4092 114.245 82.5957C113.514 81.7822 113.149 80.6478 113.149 79.1924C113.149 77.6982 113.528 76.5361 114.286 75.7061C115.045 74.8704 116.082 74.4526 117.399 74.4526C118.179 74.4526 118.927 74.5882 119.64 74.8594L119.416 75.5898C118.636 75.3298 117.958 75.1997 117.383 75.1997C116.276 75.1997 115.437 75.5428 114.867 76.229C114.297 76.9097 114.012 77.8919 114.012 79.1758C114.012 80.3932 114.297 81.3478 114.867 82.0396C115.437 82.7257 116.234 83.0688 117.258 83.0688C118.077 83.0688 118.838 82.9222 119.541 82.6289V83.3926C118.965 83.6748 118.21 83.8159 117.275 83.8159ZM125.839 83.0854C126.36 83.0854 126.813 83.0412 127.201 82.9526V83.6167C126.802 83.7495 126.343 83.8159 125.823 83.8159C125.026 83.8159 124.437 83.6029 124.055 83.1768C123.678 82.7507 123.49 82.0811 123.49 81.168V75.3408H122.154V74.8594L123.49 74.4858L123.905 72.4438H124.329V74.627H126.977V75.3408H124.329V81.0518C124.329 81.7435 124.45 82.2554 124.694 82.5874C124.937 82.9194 125.319 83.0854 125.839 83.0854ZM136.446 81.3008C136.446 82.1087 136.139 82.7313 135.525 83.1685C134.91 83.6001 134.039 83.8159 132.91 83.8159C131.704 83.8159 130.746 83.6305 130.038 83.2598V82.3716C130.945 82.8254 131.903 83.0522 132.91 83.0522C133.801 83.0522 134.476 82.9056 134.935 82.6123C135.4 82.3135 135.633 81.9178 135.633 81.4253C135.633 80.9715 135.447 80.5897 135.077 80.2798C134.711 79.9699 134.108 79.6655 133.267 79.3667C132.365 79.0402 131.731 78.7607 131.366 78.5283C131.001 78.2904 130.724 78.0247 130.536 77.7314C130.353 77.4326 130.262 77.0701 130.262 76.644C130.262 75.9689 130.544 75.4349 131.109 75.042C131.679 74.6491 132.473 74.4526 133.491 74.4526C134.465 74.4526 135.389 74.6353 136.264 75.0005L135.956 75.7476C135.071 75.3823 134.249 75.1997 133.491 75.1997C132.755 75.1997 132.171 75.3215 131.74 75.5649C131.308 75.8084 131.092 76.146 131.092 76.5776C131.092 77.048 131.258 77.4243 131.59 77.7065C131.928 77.9888 132.584 78.3042 133.557 78.6528C134.371 78.9461 134.963 79.2118 135.334 79.4497C135.705 79.6821 135.981 79.9478 136.164 80.2466C136.352 80.5454 136.446 80.8968 136.446 81.3008ZM11.0346 145C11.0346 146.174 10.6362 147.073 9.83931 147.698C9.04243 148.324 7.91353 148.636 6.45259 148.636H4.57661V153.65H3.72993V141.514H6.70161C9.59029 141.514 11.0346 142.676 11.0346 145ZM4.57661 147.906H6.24507C7.61193 147.906 8.59973 147.682 9.20845 147.233C9.81717 146.78 10.1215 146.046 10.1215 145.034C10.1215 144.098 9.83378 143.407 9.25826 142.958C8.68273 142.505 7.79178 142.278 6.5854 142.278H4.57661V147.906ZM24.1648 153.65H23.3098V147.682H16.221V153.65H15.3743V141.514H16.221V146.901H23.3098V141.514H24.1648V153.65ZM36.6143 145C36.6143 146.174 36.2159 147.073 35.419 147.698C34.6221 148.324 33.4932 148.636 32.0323 148.636H30.1563V153.65H29.3096V141.514H32.2813C35.17 141.514 36.6143 142.676 36.6143 145ZM30.1563 147.906H31.8248C33.1916 147.906 34.1794 147.682 34.7881 147.233C35.3969 146.78 35.7012 146.046 35.7012 145.034C35.7012 144.098 35.4135 143.407 34.8379 142.958C34.2624 142.505 33.3715 142.278 32.1651 142.278H30.1563V147.906ZM49.8092 146.354C51.1042 146.354 52.1224 146.666 52.8639 147.292C53.611 147.917 53.9845 148.777 53.9845 149.873C53.9845 151.118 53.5972 152.087 52.8224 152.778C52.0477 153.47 50.9796 153.816 49.6183 153.816C49.0151 153.816 48.4424 153.758 47.9001 153.642C47.3577 153.52 46.904 153.348 46.5387 153.127V152.272C47.1364 152.576 47.6676 152.789 48.1325 152.911C48.5973 153.027 49.0926 153.085 49.6183 153.085C50.6808 153.085 51.533 152.806 52.175 152.247C52.8169 151.683 53.1378 150.922 53.1378 149.964C53.1378 149.062 52.8252 148.354 52.1999 147.839C51.5745 147.325 50.7251 147.067 49.6515 147.067C48.9321 147.067 48.1795 147.175 47.3937 147.391L46.8957 147.067L47.3771 141.514H53.2209V142.311H48.1574L47.7838 146.594C48.6471 146.434 49.3223 146.354 49.8092 146.354ZM71.2302 153.65H64.5979V141.514H71.2302V142.294H65.4446V146.885H70.9065V147.665H65.4446V152.87H71.2302V153.65ZM81.7623 153.65V147.798C81.7623 146.89 81.5713 146.232 81.1895 145.822C80.8077 145.407 80.2155 145.2 79.4131 145.2C78.334 145.2 77.5427 145.474 77.0391 146.021C76.5411 146.564 76.292 147.446 76.292 148.669V153.65H75.4703V144.627H76.1675L76.3252 145.864H76.3751C76.9616 144.923 78.0048 144.453 79.5044 144.453C81.552 144.453 82.5757 145.551 82.5757 147.748V153.65H81.7623ZM92.6761 153.65L92.4686 152.222H92.4022C91.9484 152.803 91.4808 153.215 90.9994 153.459C90.5235 153.697 89.959 153.816 89.306 153.816C88.4206 153.816 87.7316 153.589 87.2391 153.135C86.7466 152.681 86.5003 152.053 86.5003 151.251C86.5003 150.371 86.8656 149.688 87.596 149.201C88.332 148.714 89.3945 148.456 90.7835 148.429L92.5018 148.379V147.781C92.5018 146.924 92.3275 146.276 91.9789 145.839C91.6302 145.402 91.0685 145.183 90.2938 145.183C89.4582 145.183 88.5921 145.416 87.6957 145.88L87.3885 145.167C88.3791 144.702 89.3586 144.469 90.327 144.469C91.3176 144.469 92.0563 144.727 92.5433 145.241C93.0358 145.756 93.2821 146.558 93.2821 147.648V153.65H92.6761ZM89.3558 153.069C90.3187 153.069 91.0768 152.795 91.6302 152.247C92.1891 151.694 92.4686 150.927 92.4686 149.948V149.06L90.8915 149.126C89.6242 149.187 88.7194 149.386 88.1771 149.724C87.6403 150.056 87.3719 150.576 87.3719 151.284C87.3719 151.849 87.5435 152.289 87.8866 152.604C88.2352 152.914 88.725 153.069 89.3558 153.069ZM101.722 144.453C102.984 144.453 103.933 144.851 104.569 145.648C105.211 146.439 105.532 147.599 105.532 149.126C105.532 150.626 105.195 151.782 104.52 152.596C103.85 153.409 102.907 153.816 101.689 153.816C101.047 153.816 100.469 153.683 99.9543 153.417C99.4396 153.152 99.0329 152.776 98.734 152.289H98.6593L98.4269 153.65H97.9123V140.734H98.734V143.979C98.734 144.466 98.723 144.915 98.7008 145.324L98.6759 146.03H98.734C99.0771 145.487 99.4894 145.089 99.9709 144.834C100.458 144.58 101.042 144.453 101.722 144.453ZM101.706 145.2C100.643 145.2 99.8823 145.504 99.423 146.113C98.9637 146.722 98.734 147.726 98.734 149.126V149.267C98.734 150.628 98.972 151.605 99.4479 152.197C99.9294 152.789 100.676 153.085 101.689 153.085C102.674 153.085 103.416 152.742 103.914 152.056C104.412 151.364 104.661 150.382 104.661 149.109C104.661 146.503 103.676 145.2 101.706 145.2ZM110.561 153.65H109.739V140.734H110.561V153.65ZM118.935 153.816C117.623 153.816 116.6 153.412 115.864 152.604C115.133 151.796 114.768 150.664 114.768 149.209C114.768 147.77 115.122 146.619 115.83 145.756C116.539 144.887 117.493 144.453 118.694 144.453C119.757 144.453 120.595 144.823 121.209 145.565C121.823 146.306 122.131 147.314 122.131 148.586V149.25H115.631C115.642 150.49 115.93 151.436 116.494 152.089C117.064 152.742 117.878 153.069 118.935 153.069C119.449 153.069 119.9 153.033 120.288 152.961C120.681 152.889 121.176 152.734 121.774 152.496V153.243C121.265 153.465 120.794 153.614 120.363 153.691C119.931 153.774 119.455 153.816 118.935 153.816ZM118.694 145.183C117.825 145.183 117.128 145.471 116.602 146.046C116.077 146.616 115.769 147.441 115.681 148.52H121.259C121.259 147.474 121.032 146.658 120.578 146.071C120.125 145.479 119.497 145.183 118.694 145.183ZM129.625 144.453C130.278 144.453 130.842 144.572 131.318 144.81C131.794 145.048 132.22 145.454 132.596 146.03H132.646C132.613 145.333 132.596 144.649 132.596 143.979V140.734H133.41V153.65H132.87L132.663 152.272H132.596C131.91 153.301 130.925 153.816 129.641 153.816C128.396 153.816 127.444 153.429 126.786 152.654C126.127 151.879 125.798 150.75 125.798 149.267C125.798 147.707 126.124 146.514 126.777 145.689C127.43 144.865 128.379 144.453 129.625 144.453ZM129.625 145.2C128.64 145.2 127.898 145.546 127.4 146.237C126.907 146.929 126.661 147.933 126.661 149.25C126.661 151.807 127.655 153.085 129.641 153.085C130.659 153.085 131.406 152.789 131.882 152.197C132.358 151.605 132.596 150.628 132.596 149.267V149.126C132.596 147.731 132.361 146.73 131.891 146.121C131.426 145.507 130.67 145.2 129.625 145.2ZM18.1766 223.65H10.5814V222.919L13.8104 219.549C14.718 218.609 15.3543 217.889 15.7196 217.391C16.0848 216.893 16.3532 216.417 16.5248 215.963C16.6963 215.51 16.7821 215.034 16.7821 214.536C16.7821 213.811 16.5441 213.221 16.0682 212.768C15.5923 212.314 14.9753 212.087 14.2171 212.087C13.2044 212.087 12.236 212.455 11.3119 213.191L10.8636 212.618C11.8763 211.766 12.9997 211.34 14.2337 211.34C15.2907 211.34 16.1208 211.622 16.724 212.187C17.3327 212.751 17.6371 213.528 17.6371 214.519C17.6371 215.321 17.4323 216.099 17.0228 216.852C16.6188 217.599 15.8773 218.523 14.7982 219.624L11.6854 222.82V222.853H18.1766V223.65ZM30.5265 220.554H28.4347V223.65H27.6544V220.554H21.4123V219.998L27.4303 211.448H28.4347V219.84H30.5265V220.554ZM27.6544 219.84V216.37C27.6544 214.699 27.6932 213.296 27.7707 212.162H27.7043C27.5936 212.366 27.2532 212.887 26.6833 213.722L22.4001 219.84H27.6544ZM38.062 211.514L33.538 223.65H32.6748L37.1904 211.514H38.062ZM42.7336 223.65L47.7307 212.311H40.866V211.514H48.7185V212.12L43.7048 223.65H42.7336ZM65.9061 220.521C65.9061 221.533 65.5326 222.336 64.7855 222.928C64.044 223.52 63.0562 223.816 61.8221 223.816C60.339 223.816 59.2018 223.653 58.4105 223.326V222.479C59.2848 222.85 60.3999 223.036 61.7557 223.036C62.7518 223.036 63.5404 222.809 64.1214 222.355C64.708 221.896 65.0013 221.295 65.0013 220.554C65.0013 220.094 64.9045 219.715 64.7108 219.417C64.5171 219.112 64.2017 218.835 63.7645 218.586C63.3273 218.337 62.6854 218.069 61.8387 217.781C60.5991 217.355 59.7414 216.896 59.2655 216.403C58.7951 215.905 58.5599 215.244 58.5599 214.419C58.5599 213.512 58.9141 212.773 59.6224 212.203C60.3363 211.628 61.2521 211.34 62.37 211.34C63.5099 211.34 64.5807 211.556 65.5824 211.987L65.2752 212.718C64.2681 212.297 63.3052 212.087 62.3866 212.087C61.4901 212.087 60.7762 212.294 60.245 212.709C59.7137 213.125 59.4481 213.689 59.4481 214.403C59.4481 214.851 59.5283 215.219 59.6888 215.507C59.8548 215.795 60.1232 216.055 60.494 216.287C60.8648 216.514 61.5012 216.788 62.4032 217.109C63.3495 217.435 64.0606 217.754 64.5365 218.063C65.0124 218.368 65.3583 218.716 65.5741 219.109C65.7954 219.497 65.9061 219.967 65.9061 220.521ZM70.6774 214.627V220.471C70.6774 221.378 70.8683 222.04 71.2502 222.455C71.632 222.864 72.2241 223.069 73.0265 223.069C74.1001 223.069 74.8887 222.798 75.3922 222.255C75.9014 221.713 76.1559 220.83 76.1559 219.607V214.627H76.9694V223.65H76.2721L76.1227 222.405H76.0729C75.4863 223.346 74.4432 223.816 72.9435 223.816C70.8905 223.816 69.8639 222.717 69.8639 220.521V214.627H70.6774ZM85.5507 223.816C84.1617 223.816 83.149 223.296 82.5126 222.255H82.4545L82.4794 222.953C82.5016 223.362 82.5126 223.81 82.5126 224.297V227.734H81.6909V214.627H82.3881L82.5459 215.914H82.5957C83.2154 214.94 84.206 214.453 85.5673 214.453C86.7848 214.453 87.7117 214.854 88.3481 215.656C88.99 216.453 89.311 217.615 89.311 219.143C89.311 220.626 88.9734 221.777 88.2983 222.596C87.6287 223.409 86.7128 223.816 85.5507 223.816ZM85.5341 223.085C86.4583 223.085 87.1722 222.742 87.6757 222.056C88.1849 221.37 88.4394 220.41 88.4394 219.176C88.4394 216.525 87.4821 215.2 85.5673 215.2C84.5159 215.2 83.7439 215.49 83.2514 216.071C82.7589 216.647 82.5126 217.588 82.5126 218.894V219.159C82.5126 220.57 82.7478 221.577 83.2182 222.181C83.6941 222.784 84.4661 223.085 85.5341 223.085ZM100.98 219.126C100.98 220.598 100.623 221.749 99.9094 222.579C99.1956 223.404 98.2105 223.816 96.9543 223.816C96.163 223.816 95.4657 223.625 94.8625 223.243C94.2594 222.861 93.7973 222.313 93.4763 221.6C93.1554 220.886 92.9949 220.061 92.9949 219.126C92.9949 217.654 93.3518 216.508 94.0657 215.689C94.7795 214.865 95.759 214.453 97.0042 214.453C98.2437 214.453 99.2149 214.87 99.9177 215.706C100.626 216.536 100.98 217.676 100.98 219.126ZM93.8582 219.126C93.8582 220.366 94.1293 221.334 94.6716 222.031C95.2195 222.723 95.9915 223.069 96.9875 223.069C97.9836 223.069 98.7528 222.723 99.2952 222.031C99.843 221.334 100.117 220.366 100.117 219.126C100.117 217.881 99.8403 216.915 99.2869 216.229C98.739 215.543 97.967 215.2 96.9709 215.2C95.9749 215.2 95.2056 215.543 94.6633 216.229C94.1265 216.91 93.8582 217.875 93.8582 219.126ZM108.731 214.453C109.113 214.453 109.523 214.491 109.96 214.569L109.802 215.357C109.426 215.263 109.036 215.216 108.632 215.216C107.863 215.216 107.232 215.543 106.739 216.196C106.247 216.849 106.001 217.673 106.001 218.669V223.65H105.179V214.627H105.876L105.959 216.254H106.017C106.388 215.59 106.784 215.125 107.204 214.859C107.625 214.588 108.134 214.453 108.731 214.453ZM115.885 223.085C116.405 223.085 116.859 223.041 117.246 222.953V223.617C116.848 223.75 116.389 223.816 115.869 223.816C115.072 223.816 114.482 223.603 114.1 223.177C113.724 222.751 113.536 222.081 113.536 221.168V215.341H112.2V214.859L113.536 214.486L113.951 212.444H114.374V214.627H117.022V215.341H114.374V221.052C114.374 221.743 114.496 222.255 114.74 222.587C114.983 222.919 115.365 223.085 115.885 223.085ZM126.492 221.301C126.492 222.109 126.185 222.731 125.57 223.168C124.956 223.6 124.085 223.816 122.956 223.816C121.749 223.816 120.792 223.631 120.084 223.26V222.372C120.991 222.825 121.949 223.052 122.956 223.052C123.847 223.052 124.522 222.906 124.981 222.612C125.446 222.313 125.678 221.918 125.678 221.425C125.678 220.972 125.493 220.59 125.122 220.28C124.757 219.97 124.154 219.666 123.313 219.367C122.411 219.04 121.777 218.761 121.412 218.528C121.047 218.29 120.77 218.025 120.582 217.731C120.399 217.433 120.308 217.07 120.308 216.644C120.308 215.969 120.59 215.435 121.154 215.042C121.724 214.649 122.519 214.453 123.537 214.453C124.511 214.453 125.435 214.635 126.309 215L126.002 215.748C125.117 215.382 124.295 215.2 123.537 215.2C122.801 215.2 122.217 215.321 121.785 215.565C121.354 215.808 121.138 216.146 121.138 216.578C121.138 217.048 121.304 217.424 121.636 217.707C121.973 217.989 122.629 218.304 123.603 218.653C124.417 218.946 125.009 219.212 125.38 219.45C125.75 219.682 126.027 219.948 126.21 220.247C126.398 220.545 126.492 220.897 126.492 221.301Z" fill="black"/>
</svg>
